<mxfile host="app.diagrams.net" modified="2023-09-25T18:03:45.835Z" agent="Mozilla/5.0 (Windows NT 10.0; Win64; x64) AppleWebKit/537.36 (KHTML, like Gecko) Chrome/116.0.0.0 Safari/537.36" version="21.8.2" etag="C47AHeSbtbvGmnJGL3KE" type="github">
  <diagram name="Page-1" id="AghjR1EDG0wm6gpot778">
    <mxGraphModel>
      <root>
        <mxCell id="0" />
        <mxCell id="1" parent="0" />
      </root>
    </mxGraphModel>
  </diagram>
</mxfile>
